%TF.GenerationSoftware,KiCad,Pcbnew,10.0.4*%
%TF.CreationDate,2026-08-24T07:45:35+07:00*%
%TF.ProjectId,RealFCv1.1,5265616c-4643-4763-912e-312e6b696361,rev?*%
%TF.SameCoordinates,Original*%
%TF.FileFunction,Soldermask,Bot*%
%TF.FilePolarity,Negative*%
%FSLAX46Y46*%
G04 Gerber Fmt 4.6, Leading zero omitted, Abs format (unit mm)*
G04 Created by KiCad (PCBNEW 10.0.4) date 2026-08-24 07:45:35*
%MOMM*%
%LPD*%
G01*
G04 APERTURE LIST*
G04 Aperture macros list*
%AMRoundRect*
0 Rectangle with rounded corners*
0 $1 Rounding radius*
0 $2 $3 $4 $5 $6 $7 $8 $9 X,Y pos of 4 corners*
0 Add a 4 corners polygon primitive as box body*
4,1,4,$2,$3,$4,$5,$6,$7,$8,$9,$2,$3,0*
0 Add four circle primitives for the rounded corners*
1,1,$1+$1,$2,$3*
1,1,$1+$1,$4,$5*
1,1,$1+$1,$6,$7*
1,1,$1+$1,$8,$9*
0 Add four rect primitives between the rounded corners*
20,1,$1+$1,$2,$3,$4,$5,0*
20,1,$1+$1,$4,$5,$6,$7,0*
20,1,$1+$1,$6,$7,$8,$9,0*
20,1,$1+$1,$8,$9,$2,$3,0*%
G04 Aperture macros list end*
%ADD10C,0.900000*%
%ADD11C,0.650000*%
%ADD12O,2.100000X1.000000*%
%ADD13O,1.600000X1.000000*%
%ADD14C,3.200000*%
%ADD15R,3.000000X3.000000*%
%ADD16R,1.700000X1.700000*%
%ADD17C,1.700000*%
%ADD18C,1.000000*%
%ADD19RoundRect,0.162500X0.617500X0.162500X-0.617500X0.162500X-0.617500X-0.162500X0.617500X-0.162500X0*%
%ADD20RoundRect,0.155000X-0.155000X0.212500X-0.155000X-0.212500X0.155000X-0.212500X0.155000X0.212500X0*%
%ADD21RoundRect,0.160000X0.197500X0.160000X-0.197500X0.160000X-0.197500X-0.160000X0.197500X-0.160000X0*%
%ADD22RoundRect,0.155000X0.155000X-0.212500X0.155000X0.212500X-0.155000X0.212500X-0.155000X-0.212500X0*%
%ADD23RoundRect,0.150000X0.625000X-0.150000X0.625000X0.150000X-0.625000X0.150000X-0.625000X-0.150000X0*%
%ADD24RoundRect,0.250000X0.650000X-0.350000X0.650000X0.350000X-0.650000X0.350000X-0.650000X-0.350000X0*%
%ADD25RoundRect,0.160000X-0.160000X0.197500X-0.160000X-0.197500X0.160000X-0.197500X0.160000X0.197500X0*%
%ADD26RoundRect,0.155000X0.212500X0.155000X-0.212500X0.155000X-0.212500X-0.155000X0.212500X-0.155000X0*%
%ADD27RoundRect,0.160000X-0.026517X-0.252791X0.252791X0.026517X0.026517X0.252791X-0.252791X-0.026517X0*%
%ADD28RoundRect,0.237500X0.237500X-0.300000X0.237500X0.300000X-0.237500X0.300000X-0.237500X-0.300000X0*%
%ADD29RoundRect,0.250000X-0.475000X0.337500X-0.475000X-0.337500X0.475000X-0.337500X0.475000X0.337500X0*%
%ADD30RoundRect,0.160000X0.160000X-0.197500X0.160000X0.197500X-0.160000X0.197500X-0.160000X-0.197500X0*%
%ADD31R,1.500000X0.900000*%
%ADD32C,0.600000*%
%ADD33R,2.900000X2.900000*%
%ADD34RoundRect,0.160000X0.222500X0.160000X-0.222500X0.160000X-0.222500X-0.160000X0.222500X-0.160000X0*%
G04 APERTURE END LIST*
D10*
%TO.C,SW5*%
X72000000Y-57250000D03*
X72000000Y-54250000D03*
%TD*%
D11*
%TO.C,J1*%
X67195000Y-48390000D03*
X67195000Y-42610000D03*
D12*
X66665000Y-49820000D03*
D13*
X70845000Y-49820000D03*
D12*
X66665000Y-41180000D03*
D13*
X70845000Y-41180000D03*
%TD*%
D14*
%TO.C,H1*%
X33500000Y-32500000D03*
%TD*%
%TO.C,H2*%
X64000000Y-32500000D03*
%TD*%
D15*
%TO.C,+VIN_BEC1*%
X71600000Y-37500000D03*
%TD*%
D14*
%TO.C,H4*%
X64000000Y-63000000D03*
%TD*%
%TO.C,H3*%
X33500000Y-63000000D03*
%TD*%
D15*
%TO.C,-VIN_BEC1*%
X71600000Y-32900000D03*
%TD*%
D16*
%TO.C,J7*%
X61560000Y-24500000D03*
D17*
X59020000Y-24500000D03*
X56480001Y-24500000D03*
X53940000Y-24500000D03*
%TD*%
D18*
%TO.C,TP2*%
X28400000Y-67900000D03*
%TD*%
D19*
%TO.C,U7*%
X56630000Y-37050000D03*
X56630000Y-38000000D03*
X56630000Y-38950000D03*
X53930000Y-38950000D03*
X53930000Y-37050000D03*
%TD*%
D20*
%TO.C,C25*%
X58130000Y-36832500D03*
X58130000Y-37967500D03*
%TD*%
D18*
%TO.C,TP1*%
X32200000Y-68000000D03*
%TD*%
D21*
%TO.C,R29*%
X61497500Y-57900000D03*
X60302500Y-57900000D03*
%TD*%
D18*
%TO.C,TP4*%
X32900000Y-57625000D03*
%TD*%
D22*
%TO.C,C7*%
X38250000Y-71817500D03*
X38250000Y-70682500D03*
%TD*%
D18*
%TO.C,TP3*%
X36900000Y-57600000D03*
%TD*%
D23*
%TO.C,J4*%
X29000000Y-56000000D03*
X29000000Y-55000000D03*
X29000000Y-54000000D03*
X29000000Y-53000000D03*
D24*
X25125000Y-57300000D03*
X25125000Y-51700000D03*
%TD*%
D25*
%TO.C,R15*%
X40250000Y-30805000D03*
X40250000Y-32000000D03*
%TD*%
D21*
%TO.C,R26*%
X61097500Y-68700000D03*
X59902500Y-68700000D03*
%TD*%
D26*
%TO.C,C29*%
X31000000Y-70250000D03*
X29865000Y-70250000D03*
%TD*%
D21*
%TO.C,R16*%
X46445000Y-33250000D03*
X45250000Y-33250000D03*
%TD*%
D27*
%TO.C,R19*%
X30277504Y-43422496D03*
X31122496Y-42577504D03*
%TD*%
D28*
%TO.C,C28*%
X36750000Y-71612501D03*
X36750000Y-69887499D03*
%TD*%
D27*
%TO.C,R18*%
X29566862Y-42718925D03*
X30411854Y-41873933D03*
%TD*%
D29*
%TO.C,C27*%
X50630000Y-36450000D03*
X50630000Y-38525000D03*
%TD*%
D30*
%TO.C,R25*%
X38100000Y-64500000D03*
X38100000Y-63305000D03*
%TD*%
D25*
%TO.C,R17*%
X45250000Y-30805000D03*
X45250000Y-32000000D03*
%TD*%
D31*
%TO.C,U6*%
X40000000Y-71750000D03*
X40000000Y-70250000D03*
X40000000Y-68750000D03*
X40000000Y-67250000D03*
X40000000Y-65750000D03*
X40000000Y-64250000D03*
X40000000Y-62750000D03*
X40000000Y-61250000D03*
X40000000Y-59750000D03*
X57500000Y-59750000D03*
X57500000Y-61250000D03*
X57500000Y-62750000D03*
X57500000Y-64250000D03*
X57500000Y-65750000D03*
X57500000Y-67250000D03*
X57500000Y-68750000D03*
X57500000Y-70250000D03*
X57500000Y-71750000D03*
D32*
X48610000Y-65000000D03*
X48610000Y-66099999D03*
X49160000Y-64450000D03*
X49160000Y-65550000D03*
X49160000Y-66650000D03*
X49710000Y-64999999D03*
D33*
X49710000Y-65550000D03*
D32*
X49710000Y-66100000D03*
X50260000Y-64450000D03*
X50260000Y-65550000D03*
X50260000Y-66650000D03*
X50810000Y-65000000D03*
X50810000Y-66099999D03*
%TD*%
D34*
%TO.C,D12*%
X64572500Y-57900000D03*
X63427500Y-57900000D03*
%TD*%
D30*
%TO.C,R24*%
X36700000Y-67897500D03*
X36700000Y-66702500D03*
%TD*%
D20*
%TO.C,C26*%
X52380000Y-36882500D03*
X52380000Y-38017500D03*
%TD*%
M02*
