M48
; DRILL file KiCad 10.0.4 date 2026-08-24T07:45:45
; FORMAT={-:-/ absolute / metric / decimal}
; #@! TF.CreationDate,2026-08-24T07:45:45+07:00
; #@! TF.GenerationSoftware,Kicad,Pcbnew,10.0.4
; #@! TF.FileFunction,MixedPlating,1,4
FMAT,2
METRIC
; #@! TA.AperFunction,Plated,PTH,ComponentDrill
T1C0.200
; #@! TA.AperFunction,Plated,PTH,ViaDrill
T2C0.250
; #@! TA.AperFunction,Plated,PTH,ViaDrill
T3C0.300
; #@! TA.AperFunction,Plated,PTH,ViaDrill
T4C0.400
; #@! TA.AperFunction,Plated,PTH,ComponentDrill
T5C0.600
; #@! TA.AperFunction,Plated,PTH,ComponentDrill
T6C1.000
; #@! TA.AperFunction,Plated,PTH,ComponentDrill
T7C1.500
; #@! TA.AperFunction,NonPlated,NPTH,ComponentDrill
T8C0.650
; #@! TA.AperFunction,NonPlated,NPTH,ComponentDrill
T9C0.900
; #@! TA.AperFunction,NonPlated,NPTH,ComponentDrill
T10C3.200
%
G90
G05
T1
X48.61Y-65.0
X48.61Y-66.1
X49.16Y-64.45
X49.16Y-65.55
X49.16Y-66.65
X49.71Y-65.0
X49.71Y-66.1
X50.26Y-64.45
X50.26Y-65.55
X50.26Y-66.65
X50.81Y-65.0
X50.81Y-66.1
T2
X26.75Y-39.5
X27.5Y-39.75
X28.0Y-33.0
X34.6Y-38.775
X35.1Y-38.2
X36.0Y-51.0
X36.5Y-43.0
X36.75Y-51.5
X37.25Y-37.402
X38.0Y-39.4
X39.25Y-30.0
X40.0Y-51.5
X40.25Y-30.0
X41.3Y-39.7
X42.35Y-54.4
X43.5Y-54.0
X44.5Y-54.0
X45.25Y-29.75
X45.25Y-34.0
X45.68Y-56.25
X46.44Y-56.47
X47.75Y-46.0
X47.75Y-47.0
X49.9Y-61.0
X51.0Y-47.75
X51.2Y-50.7
X51.75Y-47.75
X53.7Y-50.7
T3
X25.9Y-44.1
X25.9Y-45.6
X25.9Y-47.1
X25.9Y-60.275
X25.925Y-61.875
X25.925Y-63.775
X26.0Y-29.0
X26.0Y-30.5
X26.0Y-32.0
X26.0Y-36.5
X26.0Y-38.0
X26.0Y-54.5
X26.0Y-59.0
X26.0Y-65.0
X26.0Y-66.5
X27.5Y-35.0
X27.5Y-57.5
X27.5Y-59.0
X27.5Y-65.0
X27.5Y-66.5
X27.525Y-60.4
X27.55Y-61.95
X27.55Y-63.725
X29.0Y-26.0
X29.0Y-57.5
X29.0Y-59.0
X29.0Y-60.5
X29.0Y-62.0
X29.0Y-63.5
X29.0Y-65.0
X29.0Y-66.5
X29.1Y-43.9
X29.2Y-46.7
X29.5Y-45.6
X30.0Y-47.5
X30.2Y-45.0
X30.3Y-54.0
X30.5Y-24.5
X30.5Y-26.0
X30.5Y-27.5
X30.5Y-60.5
X30.5Y-62.0
X30.5Y-63.5
X30.5Y-65.0
X30.5Y-66.5
X30.5Y-68.0
X30.7Y-36.7
X30.7Y-48.1
X30.9Y-44.3
X31.0Y-40.25
X31.4Y-48.8
X31.6Y-58.65
X31.625Y-51.05
X31.7Y-43.5
X32.0Y-24.5
X32.0Y-26.0
X32.0Y-60.5
X32.0Y-66.5
X32.1Y-49.5
X32.2Y-38.8
X32.5Y-42.7
X32.7Y-50.1
X33.293Y-38.493
X33.3Y-42.0
X33.3Y-49.5
X33.5Y-24.5
X33.5Y-29.0
X33.5Y-66.5
X33.5Y-69.5
X33.5Y-71.0
X33.814Y-48.835
X34.0Y-42.5
X34.1Y-41.2
X34.25Y-54.1
X34.5Y-49.4
X34.7Y-42.1
X35.0Y-27.5
X35.0Y-29.0
X35.0Y-69.5
X35.2Y-49.0
X35.7Y-41.3
X35.75Y-48.4
X35.805Y-50.031
X35.85Y-66.7
X35.9Y-71.6
X36.2Y-40.5
X36.4Y-47.9
X36.5Y-26.0
X36.5Y-27.5
X36.5Y-29.0
X36.5Y-30.5
X36.5Y-32.0
X36.5Y-33.5
X36.5Y-62.0
X36.5Y-63.5
X36.5Y-65.0
X36.55Y-34.9
X36.6Y-36.9
X38.0Y-26.0
X38.0Y-29.0
X38.0Y-30.5
X38.0Y-32.0
X38.0Y-33.5
X38.0Y-41.1
X38.1Y-65.4
X38.25Y-35.5
X38.7Y-38.6
X39.039Y-40.275
X39.5Y-24.5
X39.5Y-26.0
X40.5Y-34.7
X40.5Y-36.025
X40.5Y-43.6
X40.5Y-45.1
X40.5Y-46.8
X40.65Y-55.367
X41.0Y-24.5
X41.0Y-26.0
X41.2Y-50.3
X41.5Y-38.6
X41.525Y-37.2
X41.975Y-61.1
X42.2Y-49.3
X42.5Y-24.5
X42.5Y-26.0
X42.5Y-66.5
X42.5Y-68.0
X42.5Y-69.5
X42.5Y-71.0
X43.4Y-44.8
X43.5Y-46.5
X43.5Y-48.1
X44.0Y-24.5
X44.0Y-26.0
X44.0Y-65.0
X44.0Y-68.0
X44.0Y-71.0
X44.9Y-39.6
X45.1Y-44.8
X45.5Y-24.5
X45.5Y-26.0
X45.5Y-63.5
X45.5Y-65.0
X45.5Y-66.5
X45.5Y-69.5
X46.4Y-29.9
X46.4Y-31.1
X46.4Y-32.1
X46.4Y-34.6
X46.4Y-35.8
X47.0Y-26.0
X47.0Y-44.0
X47.0Y-62.0
X47.0Y-63.5
X47.0Y-65.0
X47.0Y-66.5
X47.0Y-68.0
X47.0Y-71.0
X48.431Y-53.674
X48.5Y-26.0
X48.5Y-59.0
X48.5Y-69.5
X49.0Y-55.2
X49.4Y-41.6
X50.0Y-24.5
X50.0Y-54.5
X50.0Y-56.0
X50.0Y-68.0
X50.0Y-71.0
X50.6Y-35.2
X50.75Y-33.5
X51.5Y-24.5
X51.5Y-41.0
X51.5Y-69.5
X52.25Y-55.475
X52.375Y-42.2
X52.925Y-60.775
X52.975Y-62.075
X53.0Y-29.0
X53.0Y-35.0
X53.0Y-68.0
X53.0Y-71.0
X53.2Y-58.0
X53.3Y-53.0
X53.35Y-55.525
X53.425Y-56.5
X54.475Y-55.475
X54.5Y-29.0
X54.5Y-35.0
X54.5Y-45.5
X54.5Y-47.0
X54.5Y-60.5
X54.5Y-62.0
X54.5Y-66.5
X54.5Y-69.5
X54.55Y-50.05
X54.65Y-56.525
X55.7Y-56.8
X56.0Y-29.0
X56.0Y-35.0
X56.631Y-48.874
X56.817Y-57.869
X57.474Y-52.1
X57.5Y-29.0
X57.5Y-54.5
X57.5Y-56.0
X58.2Y-36.0
X58.25Y-44.94
X58.25Y-46.026
X58.4Y-33.4
X59.0Y-29.0
X59.0Y-50.0
X59.0Y-51.5
X59.0Y-54.5
X59.0Y-56.0
X59.4Y-57.9
X60.5Y-60.5
X60.5Y-66.5
X60.9Y-48.0
X61.1Y-26.5
X62.0Y-30.5
X62.0Y-35.0
X62.0Y-45.5
X62.0Y-53.0
X62.0Y-68.7
X63.5Y-35.0
X63.5Y-50.0
X63.5Y-68.0
X63.5Y-69.5
X63.5Y-71.0
X63.8Y-43.05
X64.5Y-27.6
X65.0Y-24.5
X65.0Y-29.0
X65.0Y-35.0
X65.0Y-39.5
X65.0Y-56.0
X65.0Y-66.5
X65.0Y-68.0
X65.0Y-71.0
X66.5Y-24.5
X66.5Y-29.0
X66.5Y-30.5
X66.5Y-32.0
X66.5Y-33.5
X66.5Y-35.0
X66.5Y-51.5
X66.5Y-53.0
X66.5Y-57.5
X66.5Y-59.0
X66.5Y-65.0
X66.5Y-69.5
X66.5Y-71.0
X68.0Y-29.0
X68.0Y-30.5
X68.0Y-32.0
X68.0Y-33.5
X68.0Y-35.0
X68.0Y-51.5
X68.0Y-53.0
X68.0Y-68.0
X68.0Y-69.5
X69.0Y-58.1
X69.12Y-53.5
X69.25Y-35.0
X69.5Y-29.0
X69.5Y-30.5
X69.5Y-42.5
X69.5Y-44.0
X69.5Y-45.5
X69.5Y-47.0
X69.5Y-48.5
X69.5Y-51.5
X69.5Y-60.5
X69.5Y-62.0
X69.5Y-63.5
X69.5Y-65.0
X69.5Y-66.5
X69.5Y-68.0
X69.5Y-69.5
X71.0Y-27.5
X71.0Y-29.0
X71.0Y-44.0
X71.0Y-45.5
X71.0Y-47.0
X71.0Y-62.0
X71.0Y-63.5
X71.0Y-65.0
X71.0Y-66.5
X71.0Y-68.0
X72.5Y-42.5
X72.5Y-44.0
X72.5Y-45.5
X72.5Y-47.0
X72.5Y-48.5
X72.5Y-62.0
X72.5Y-63.5
T4
X56.2Y-41.2
X61.4Y-37.6
T6
X53.94Y-24.5
X56.48Y-24.5
X59.02Y-24.5
X61.56Y-24.5
T7
X71.6Y-32.9
X71.6Y-37.5
T8
X67.195Y-42.61
X67.195Y-48.39
T9
X72.0Y-54.25
X72.0Y-57.25
T10
X33.5Y-32.5
X33.5Y-63.0
X64.0Y-32.5
X64.0Y-63.0
T5
G00X66.115Y-41.18
M15
G01X67.215Y-41.18
M16
G05
G00X66.115Y-49.82
M15
G01X67.215Y-49.82
M16
G05
G00X70.545Y-41.18
M15
G01X71.145Y-41.18
M16
G05
G00X70.545Y-49.82
M15
G01X71.145Y-49.82
M16
G05
M30
